# Blender 4.2.2 LTS
# www.blender.org
mtllib cloud.mtl
o Cube
v 1.000000 1.000000 -1.000000
v 1.000000 -1.000000 -1.000000
v 1.000000 1.000000 1.000000
v 1.000000 -1.000000 1.000000
v -1.000000 1.000000 -1.000000
v -1.000000 -1.000000 -1.000000
v -1.000000 1.000000 1.000000
v -1.000000 -1.000000 1.000000
v 3.061599 1.000000 -1.000000
v 3.061599 -1.000000 -1.000000
v 3.061599 1.000000 1.000000
v 3.061599 -1.000000 1.000000
v 5.378016 1.000000 -1.000000
v 5.378016 -1.000000 -1.000000
v 5.378016 1.000000 1.000000
v 5.378016 -1.000000 1.000000
v 1.000000 -1.000000 -3.427308
v -1.000000 -1.000000 -3.427308
v 1.000000 1.000000 -3.427308
v -1.000000 1.000000 -3.427308
v 3.061599 1.000000 -3.427308
v 3.061599 -1.000000 -3.427308
v 5.378016 1.000000 -3.427308
v 5.378016 -1.000000 -3.427308
v 1.000000 -1.000000 -6.033947
v -1.000000 -1.000000 -6.033947
v 1.000000 1.000000 -6.033947
v -1.000000 1.000000 -6.033947
v 3.061599 1.000000 -6.033947
v 3.061599 -1.000000 -6.033947
v 5.378016 1.000000 -6.033947
v 5.378016 -1.000000 -6.033947
v 1.000000 -1.000000 -6.033947
v -1.000000 -1.000000 -6.033947
v 1.000000 1.000000 -6.033947
v -1.000000 1.000000 -6.033947
v 3.061599 1.000000 -6.033947
v 3.061599 -1.000000 -6.033947
v 5.378016 1.000000 -6.033947
v 5.378016 -1.000000 -6.033947
v 1.000000 -1.000000 -7.710666
v -1.000000 -1.000000 -7.710666
v 1.000000 1.000000 -7.710666
v -1.000000 1.000000 -7.710666
v 3.061599 1.000000 -7.710666
v 3.061599 -1.000000 -7.710666
v 1.000000 1.000000 -8.907543
v 1.000000 -1.000000 -8.907543
v 3.061599 1.000000 -8.907543
v 3.061599 -1.000000 -8.907543
v 7.172256 1.000000 -3.427308
v 7.172256 1.000000 -1.000000
v 7.172256 -1.000000 -1.000000
v 7.172256 -1.000000 -3.427308
v 6.461072 1.000000 -1.000000
v 6.461072 -1.000000 -1.000000
v 6.461072 1.000000 1.000000
v 6.461072 -1.000000 1.000000
v -2.303149 -1.000000 -1.000000
v -2.303149 -1.000000 1.000000
v -2.303149 1.000000 1.000000
v -2.303149 1.000000 -1.000000
v -2.303149 1.000000 -6.033947
v -2.303149 1.000000 -3.427308
v -2.303149 -1.000000 -3.427308
v -2.303149 -1.000000 -6.033947
v -1.000000 -1.000000 2.910133
v -1.000000 1.000000 2.910133
v 1.000000 1.000000 2.910133
v 1.000000 -1.000000 2.910133
v 3.061599 1.000000 2.910133
v 3.061599 -1.000000 2.910133
v 5.378016 1.000000 2.910133
v 5.378016 -1.000000 2.910133
v -1.000000 -1.000000 4.023090
v -1.000000 1.000000 4.023090
v 1.000000 1.000000 4.023090
v 1.000000 -1.000000 4.023090
v 3.061599 1.000000 4.023090
v 3.061599 -1.000000 4.023090
v -3.895728 -1.000000 -1.000000
v -3.895728 -1.000000 1.000000
v -3.895728 1.000000 1.000000
v -3.895728 1.000000 -1.000000
v -3.895728 1.000000 -3.427308
v -3.895728 -1.000000 -3.427308
vn -0.0000 1.0000 -0.0000
vn -0.0000 -1.0000 -0.0000
vn -0.0000 -0.0000 -1.0000
vn -0.0000 -0.0000 1.0000
vn 1.0000 -0.0000 -0.0000
vn -1.0000 -0.0000 -0.0000
vt 0.875000 0.500000
vt 0.625000 0.750000
vt 0.625000 0.500000
vt 0.375000 0.500000
vt 0.125000 0.750000
vt 0.125000 0.500000
vt 0.375000 0.750000
vt 0.875000 0.750000
vt 0.625000 0.250000
vt 0.375000 0.250000
vt 0.625000 1.000000
vt 0.375000 1.000000
vt 0.625000 0.000000
vt 0.375000 0.000000
s 0
usemtl Material
f 5/1/1 3/2/1 1/3/1
f 3/2/1 71/2/1 11/2/1
f 20/1/1 62/1/1 5/1/1
f 2/4/2 8/5/2 6/6/2
f 3/2/1 9/3/1 1/3/1
f 13/3/1 21/3/1 9/3/1
f 11/2/1 13/3/1 9/3/1
f 16/7/2 72/7/2 12/7/2
f 28/1/1 64/1/1 20/1/1
f 2/4/2 12/7/2 4/7/2
f 13/3/3 56/4/3 14/4/3
f 14/4/4 52/3/4 13/3/4
f 10/4/2 16/7/2 12/7/2
f 12/7/2 70/7/2 4/7/2
f 17/4/2 30/4/2 22/4/2
f 23/3/1 29/3/1 21/3/1
f 19/3/1 28/1/1 20/1/1
f 6/6/2 17/4/2 2/4/2
f 1/3/1 20/1/1 5/1/1
f 2/4/2 22/4/2 10/4/2
f 9/3/1 19/3/1 1/3/1
f 10/4/2 24/4/2 14/4/2
f 27/3/1 37/3/1 35/3/1
f 31/3/1 40/4/1 39/3/1
f 32/4/1 38/4/1 40/4/1
f 5/1/1 61/8/1 7/8/1
f 18/6/2 25/4/2 17/4/2
f 22/4/2 32/4/2 24/4/2
f 24/4/5 31/3/5 23/3/5
f 21/3/1 27/3/1 19/3/1
f 36/9/6 42/10/6 34/10/6
f 38/4/5 45/3/5 37/3/5
f 37/3/3 40/4/3 38/4/3
f 28/1/1 35/3/1 36/1/1
f 29/3/1 39/3/1 37/3/1
f 30/4/1 33/4/1 38/4/1
f 26/10/1 36/9/1 34/10/1
f 25/4/1 34/6/1 33/4/1
f 44/9/3 41/4/3 42/10/3
f 41/4/2 50/4/2 46/4/2
f 34/6/2 41/4/2 33/4/2
f 37/3/1 43/3/1 35/3/1
f 35/3/1 44/1/1 36/1/1
f 33/4/2 46/4/2 38/4/2
f 47/3/3 50/4/3 48/4/3
f 46/4/5 49/3/5 45/3/5
f 45/3/1 47/3/1 43/3/1
f 43/3/6 48/4/6 41/4/6
f 53/4/5 51/3/5 52/3/5
f 24/4/2 53/4/2 14/4/2
f 13/3/1 51/3/1 23/3/1
f 23/3/3 54/4/3 24/4/3
f 55/3/5 58/7/5 56/4/5
f 14/4/2 58/7/2 16/7/2
f 16/7/4 57/2/4 15/2/4
f 15/2/1 55/3/1 13/3/1
f 65/10/3 85/9/3 64/9/3
f 59/6/2 86/6/2 65/6/2
f 64/9/6 66/10/6 65/10/6
f 18/6/2 66/6/2 26/6/2
f 7/11/4 60/12/4 8/12/4
f 6/6/2 65/6/2 18/6/2
f 26/10/3 63/9/3 28/9/3
f 8/5/2 59/6/2 6/6/2
f 67/12/6 76/11/6 68/11/6
f 68/8/1 77/2/1 69/2/1
f 72/7/4 73/2/4 71/2/4
f 8/12/6 68/11/6 7/11/6
f 15/2/5 74/7/5 16/7/5
f 4/7/2 67/5/2 8/5/2
f 7/8/1 69/2/1 3/2/1
f 11/2/1 73/2/1 15/2/1
f 77/2/4 75/12/4 78/7/4
f 78/7/4 79/2/4 77/2/4
f 69/2/1 79/2/1 71/2/1
f 70/7/2 75/5/2 67/5/2
f 72/7/2 78/7/2 70/7/2
f 71/2/5 80/7/5 72/7/5
f 83/13/6 81/10/6 82/14/6
f 84/9/6 86/10/6 81/10/6
f 62/1/1 83/8/1 61/8/1
f 61/11/4 82/12/4 60/12/4
f 64/1/1 84/1/1 62/1/1
f 60/5/2 81/6/2 59/6/2
f 5/1/1 7/8/1 3/2/1
f 3/2/1 69/2/1 71/2/1
f 20/1/1 64/1/1 62/1/1
f 2/4/2 4/7/2 8/5/2
f 3/2/1 11/2/1 9/3/1
f 13/3/1 23/3/1 21/3/1
f 11/2/1 15/2/1 13/3/1
f 16/7/2 74/7/2 72/7/2
f 28/1/1 63/1/1 64/1/1
f 2/4/2 10/4/2 12/7/2
f 13/3/3 55/3/3 56/4/3
f 14/4/4 53/4/4 52/3/4
f 10/4/2 14/4/2 16/7/2
f 12/7/2 72/7/2 70/7/2
f 17/4/2 25/4/2 30/4/2
f 23/3/1 31/3/1 29/3/1
f 19/3/1 27/3/1 28/1/1
f 6/6/2 18/6/2 17/4/2
f 1/3/1 19/3/1 20/1/1
f 2/4/2 17/4/2 22/4/2
f 9/3/1 21/3/1 19/3/1
f 10/4/2 22/4/2 24/4/2
f 27/3/1 29/3/1 37/3/1
f 31/3/1 32/4/1 40/4/1
f 32/4/1 30/4/1 38/4/1
f 5/1/1 62/1/1 61/8/1
f 18/6/2 26/6/2 25/4/2
f 22/4/2 30/4/2 32/4/2
f 24/4/5 32/4/5 31/3/5
f 21/3/1 29/3/1 27/3/1
f 36/9/6 44/9/6 42/10/6
f 38/4/5 46/4/5 45/3/5
f 37/3/3 39/3/3 40/4/3
f 28/1/1 27/3/1 35/3/1
f 29/3/1 31/3/1 39/3/1
f 30/4/1 25/4/1 33/4/1
f 26/10/1 28/9/1 36/9/1
f 25/4/1 26/6/1 34/6/1
f 44/9/3 43/3/3 41/4/3
f 41/4/2 48/4/2 50/4/2
f 34/6/2 42/6/2 41/4/2
f 37/3/1 45/3/1 43/3/1
f 35/3/1 43/3/1 44/1/1
f 33/4/2 41/4/2 46/4/2
f 47/3/3 49/3/3 50/4/3
f 46/4/5 50/4/5 49/3/5
f 45/3/1 49/3/1 47/3/1
f 43/3/6 47/3/6 48/4/6
f 53/4/5 54/4/5 51/3/5
f 24/4/2 54/4/2 53/4/2
f 13/3/1 52/3/1 51/3/1
f 23/3/3 51/3/3 54/4/3
f 55/3/5 57/2/5 58/7/5
f 14/4/2 56/4/2 58/7/2
f 16/7/4 58/7/4 57/2/4
f 15/2/1 57/2/1 55/3/1
f 65/10/3 86/10/3 85/9/3
f 59/6/2 81/6/2 86/6/2
f 64/9/6 63/9/6 66/10/6
f 18/6/2 65/6/2 66/6/2
f 7/11/4 61/11/4 60/12/4
f 6/6/2 59/6/2 65/6/2
f 26/10/3 66/10/3 63/9/3
f 8/5/2 60/5/2 59/6/2
f 67/12/6 75/12/6 76/11/6
f 68/8/1 76/8/1 77/2/1
f 72/7/4 74/7/4 73/2/4
f 8/12/6 67/12/6 68/11/6
f 15/2/5 73/2/5 74/7/5
f 4/7/2 70/7/2 67/5/2
f 7/8/1 68/8/1 69/2/1
f 11/2/1 71/2/1 73/2/1
f 77/2/4 76/11/4 75/12/4
f 78/7/4 80/7/4 79/2/4
f 69/2/1 77/2/1 79/2/1
f 70/7/2 78/7/2 75/5/2
f 72/7/2 80/7/2 78/7/2
f 71/2/5 79/2/5 80/7/5
f 83/13/6 84/9/6 81/10/6
f 84/9/6 85/9/6 86/10/6
f 62/1/1 84/1/1 83/8/1
f 61/11/4 83/11/4 82/12/4
f 64/1/1 85/1/1 84/1/1
f 60/5/2 82/5/2 81/6/2
