# Blender 4.2.2 LTS
# www.blender.org
mtllib left_wing.mtl
o Cube.003
v 0.003512 0.002950 0.002142
v 0.003512 -0.002949 0.002142
v -0.002142 0.002949 -0.003513
v -0.002142 -0.002950 -0.003512
v 0.002141 0.002950 0.003512
v 0.002141 -0.002949 0.003513
v -0.003513 0.002949 -0.002142
v -0.003513 -0.002950 -0.002141
vn 0.7072 -0.0000 -0.7070
vn -0.7071 0.0002 -0.7071
vn -0.7071 0.0001 0.7071
vn 0.7068 0.0001 0.7074
vn -0.0001 1.0000 -0.0001
vn 0.0001 -1.0000 0.0001
vn 0.7071 -0.0001 -0.7071
vn -0.7071 -0.0001 -0.7071
vn 0.7071 -0.0000 0.7071
vt 0.625000 0.000000
vt 0.375000 0.250000
vt 0.375000 0.000000
vt 0.625000 0.250000
vt 0.375000 0.500000
vt 0.625000 0.500000
vt 0.375000 0.750000
vt 0.625000 0.750000
vt 0.375000 1.000000
vt 0.125000 0.500000
vt 0.125000 0.750000
vt 0.875000 0.750000
vt 0.625000 1.000000
vt 0.875000 0.500000
s 0
f 2/1/1 3/2/1 1/3/1
f 4/4/2 7/5/2 3/2/2
f 8/6/3 5/7/3 7/5/3
f 6/8/4 1/9/4 5/7/4
f 3/10/5 5/7/5 1/11/5
f 8/6/6 2/12/6 6/8/6
f 2/1/7 4/4/7 3/2/7
f 4/4/8 8/6/8 7/5/8
f 8/6/3 6/8/3 5/7/3
f 6/8/9 2/13/9 1/9/9
f 3/10/5 7/5/5 5/7/5
f 8/6/6 4/14/6 2/12/6
