# Blender 4.2.2 LTS
# www.blender.org
mtllib leg.mtl
o Cube.001
v 0.003221 -0.003044 -0.000021
v 0.003221 -0.008813 -0.000021
v 0.003221 -0.003044 0.001566
v 0.003221 -0.008813 0.001566
v 0.001634 -0.003044 -0.000021
v 0.001634 -0.008813 -0.000021
v 0.001634 -0.003044 0.001566
v 0.001634 -0.008813 0.001566
v 0.003221 -0.007775 -0.000021
v 0.003221 -0.007775 0.001566
v 0.001634 -0.007775 0.001566
v 0.001634 -0.007775 -0.000021
v 0.003221 -0.007775 -0.001326
v 0.003221 -0.008813 -0.001326
v 0.001634 -0.008813 -0.001326
v 0.001634 -0.007775 -0.001326
v 0.004221 -0.007775 -0.000021
v 0.004221 -0.008813 -0.000021
v 0.000634 -0.008813 -0.000021
v 0.000634 -0.007775 -0.000021
v 0.004221 -0.007775 -0.001326
v 0.004221 -0.008813 -0.001326
v 0.000634 -0.008813 -0.001326
v 0.000634 -0.007775 -0.001326
v 0.003221 -0.007775 -0.000021
v 0.003221 -0.008813 -0.000021
v 0.004221 -0.007775 -0.000021
v 0.004221 -0.008813 -0.000021
v 0.001634 -0.008813 0.004184
v 0.001634 -0.007775 0.004184
v 0.000634 -0.008813 0.004184
v 0.000634 -0.007775 0.004184
v 0.003221 -0.007775 0.004184
v 0.003221 -0.008813 0.004184
v 0.004221 -0.007775 0.004184
v 0.004221 -0.008813 0.004184
v 0.003221 -0.008813 0.003163
v 0.001634 -0.008813 0.003163
v 0.003221 -0.007775 0.003163
v 0.001634 -0.007775 0.003163
v -0.003221 -0.003044 -0.000021
v -0.003221 -0.008813 -0.000021
v -0.003221 -0.003044 0.001566
v -0.003221 -0.008813 0.001566
v -0.001634 -0.003044 -0.000021
v -0.001634 -0.008813 -0.000021
v -0.001634 -0.003044 0.001566
v -0.001634 -0.008813 0.001566
v -0.003221 -0.007775 -0.000021
v -0.003221 -0.007775 0.001566
v -0.001634 -0.007775 0.001566
v -0.001634 -0.007775 -0.000021
v -0.003221 -0.007775 -0.001326
v -0.003221 -0.008813 -0.001326
v -0.001634 -0.008813 -0.001326
v -0.001634 -0.007775 -0.001326
v -0.004221 -0.007775 -0.000021
v -0.004221 -0.008813 -0.000021
v -0.000634 -0.008813 -0.000021
v -0.000634 -0.007775 -0.000021
v -0.004221 -0.007775 -0.001326
v -0.004221 -0.008813 -0.001326
v -0.000634 -0.008813 -0.001326
v -0.000634 -0.007775 -0.001326
v -0.003221 -0.007775 -0.000021
v -0.003221 -0.008813 -0.000021
v -0.004221 -0.007775 -0.000021
v -0.004221 -0.008813 -0.000021
v -0.001634 -0.008813 0.004184
v -0.001634 -0.007775 0.004184
v -0.000634 -0.008813 0.004184
v -0.000634 -0.007775 0.004184
v -0.003221 -0.007775 0.004184
v -0.003221 -0.008813 0.004184
v -0.004221 -0.007775 0.004184
v -0.004221 -0.008813 0.004184
v -0.003221 -0.008813 0.003163
v -0.001634 -0.008813 0.003163
v -0.003221 -0.007775 0.003163
v -0.001634 -0.007775 0.003163
vn -0.0000 -0.0000 1.0000
vn 1.0000 -0.0000 -0.0000
vn -0.0000 -1.0000 -0.0000
vn -0.0000 1.0000 -0.0000
vn -0.0000 -0.0000 -1.0000
vn -1.0000 -0.0000 -0.0000
vt 0.569224 0.000000
vt 0.625000 0.000000
vt 0.000000 0.000000
vt 0.625000 0.750000
vt 0.569224 0.750000
vt 0.875000 0.750000
vt 0.375000 0.500000
vt 0.125000 0.750000
vt 0.125000 0.500000
vt 0.875000 0.500000
vt 0.625000 0.500000
vt 0.375000 1.000000
vt 0.375000 0.750000
vt 0.569224 0.500000
vt 0.569224 0.250000
vt 0.375000 0.250000
vt 0.375000 0.000000
vt 0.569224 1.000000
vt 0.625000 1.000000
vt 0.625000 0.250000
s 0
f 33/1/1 34/2/1 36/2/1
f 4/3/2 10/3/2 39/3/2
f 29/4/1 30/5/1 32/5/1
f 2/6/3 6/4/3 15/4/3
f 7/7/4 3/9/4 1/8/4
f 4/10/3 8/11/3 6/4/3
f 12/5/5 5/13/5 1/12/5
f 11/14/6 7/7/6 5/13/6
f 10/15/1 3/16/1 7/7/1
f 9/1/2 1/17/2 3/16/2
f 15/4/5 16/5/5 13/18/5
f 12/5/4 9/18/4 13/18/4
f 26/6/3 28/6/3 36/6/3
f 12/5/4 16/5/4 24/5/4
f 17/1/2 18/2/2 22/2/2
f 19/4/6 20/5/6 24/5/6
f 2/6/3 14/6/3 22/6/3
f 16/5/5 15/4/5 23/4/5
f 14/19/5 13/18/5 21/18/5
f 13/18/4 9/18/4 17/18/4
f 15/4/3 6/4/3 19/4/3
f 2/2/3 26/2/3 25/1/3
f 6/3/2 12/3/2 30/3/2
f 9/18/3 25/18/3 27/18/3
f 17/1/3 27/1/3 28/2/3
f 18/6/3 28/6/3 26/6/3
f 25/1/6 26/2/6 34/2/6
f 20/5/6 19/4/6 31/4/6
f 19/4/3 6/4/3 29/4/3
f 27/18/4 25/18/4 33/18/4
f 12/5/4 20/5/4 32/5/4
f 28/2/2 27/1/2 35/1/2
f 37/20/1 39/15/1 40/14/1
f 10/15/4 11/14/4 40/14/4
f 8/11/3 4/10/3 37/10/3
f 11/3/6 8/3/6 38/3/6
f 76/2/1 74/2/1 73/1/1
f 79/3/6 50/3/6 44/3/6
f 72/5/1 70/5/1 69/4/1
f 55/4/3 46/4/3 42/6/3
f 41/8/4 43/9/4 47/7/4
f 46/4/3 48/11/3 44/10/3
f 41/12/5 45/13/5 52/5/5
f 45/13/2 47/7/2 51/14/2
f 47/7/1 43/16/1 50/15/1
f 43/16/6 41/17/6 49/1/6
f 53/18/5 56/5/5 55/4/5
f 53/18/4 49/18/4 52/5/4
f 76/6/3 68/6/3 66/6/3
f 64/5/4 56/5/4 52/5/4
f 62/2/6 58/2/6 57/1/6
f 64/5/2 60/5/2 59/4/2
f 62/6/3 54/6/3 42/6/3
f 63/4/5 55/4/5 56/5/5
f 61/18/5 53/18/5 54/19/5
f 57/18/4 49/18/4 53/18/4
f 59/4/3 46/4/3 55/4/3
f 42/2/3 49/1/3 65/1/3
f 70/3/6 52/3/6 46/3/6
f 49/18/3 57/18/3 67/18/3
f 57/1/3 58/2/3 68/2/3
f 58/6/3 42/6/3 66/6/3
f 74/2/2 66/2/2 65/1/2
f 71/4/2 59/4/2 60/5/2
f 69/4/3 46/4/3 59/4/3
f 73/18/4 65/18/4 67/18/4
f 72/5/4 60/5/4 52/5/4
f 75/1/6 67/1/6 68/2/6
f 80/14/1 79/15/1 77/20/1
f 80/14/4 51/14/4 50/15/4
f 77/10/3 44/10/3 48/11/3
f 78/3/2 48/3/2 51/3/2
f 33/1/1 36/2/1 35/1/1
f 4/3/2 39/3/2 37/3/2
f 29/4/1 32/5/1 31/4/1
f 2/6/3 15/4/3 14/6/3
f 7/7/4 1/8/4 5/13/4
f 4/10/3 6/4/3 2/6/3
f 12/5/5 1/12/5 9/18/5
f 11/14/6 5/13/6 12/5/6
f 10/15/1 7/7/1 11/14/1
f 9/1/2 3/16/2 10/15/2
f 15/4/5 13/18/5 14/19/5
f 12/5/4 13/18/4 16/5/4
f 26/6/3 36/6/3 34/6/3
f 12/5/4 24/5/4 20/5/4
f 17/1/2 22/2/2 21/1/2
f 19/4/6 24/5/6 23/4/6
f 2/6/3 22/6/3 18/6/3
f 16/5/5 23/4/5 24/5/5
f 14/19/5 21/18/5 22/19/5
f 13/18/4 17/18/4 21/18/4
f 15/4/3 19/4/3 23/4/3
f 2/2/3 25/1/3 9/1/3
f 6/3/2 30/3/2 29/3/2
f 9/18/3 27/18/3 17/18/3
f 17/1/3 28/2/3 18/2/3
f 18/6/3 26/6/3 2/6/3
f 25/1/6 34/2/6 33/1/6
f 20/5/6 31/4/6 32/5/6
f 19/4/3 29/4/3 31/4/3
f 27/18/4 33/18/4 35/18/4
f 12/5/4 32/5/4 30/5/4
f 28/2/2 35/1/2 36/2/2
f 37/20/1 40/14/1 38/11/1
f 10/15/4 40/14/4 39/15/4
f 8/11/3 37/10/3 38/11/3
f 11/3/6 38/3/6 40/3/6
f 76/2/1 73/1/1 75/1/1
f 79/3/6 44/3/6 77/3/6
f 72/5/1 69/4/1 71/4/1
f 55/4/3 42/6/3 54/6/3
f 41/8/4 47/7/4 45/13/4
f 46/4/3 44/10/3 42/6/3
f 41/12/5 52/5/5 49/18/5
f 45/13/2 51/14/2 52/5/2
f 47/7/1 50/15/1 51/14/1
f 43/16/6 49/1/6 50/15/6
f 53/18/5 55/4/5 54/19/5
f 53/18/4 52/5/4 56/5/4
f 76/6/3 66/6/3 74/6/3
f 64/5/4 52/5/4 60/5/4
f 62/2/6 57/1/6 61/1/6
f 64/5/2 59/4/2 63/4/2
f 62/6/3 42/6/3 58/6/3
f 63/4/5 56/5/5 64/5/5
f 61/18/5 54/19/5 62/19/5
f 57/18/4 53/18/4 61/18/4
f 59/4/3 55/4/3 63/4/3
f 42/2/3 65/1/3 66/2/3
f 70/3/6 46/3/6 69/3/6
f 49/18/3 67/18/3 65/18/3
f 57/1/3 68/2/3 67/1/3
f 58/6/3 66/6/3 68/6/3
f 74/2/2 65/1/2 73/1/2
f 71/4/2 60/5/2 72/5/2
f 69/4/3 59/4/3 71/4/3
f 73/18/4 67/18/4 75/18/4
f 72/5/4 52/5/4 70/5/4
f 75/1/6 68/2/6 76/2/6
f 80/14/1 77/20/1 78/11/1
f 80/14/4 50/15/4 79/15/4
f 77/10/3 48/11/3 78/11/3
f 78/3/2 51/3/2 80/3/2
